<?xml version="1.0" encoding="UTF-8"?>
<svg id="Layer_1" xmlns="http://www.w3.org/2000/svg" version="1.1" viewBox="0 0 1800 1200">
  <!-- Generator: Adobe Illustrator 30.0.0, SVG Export Plug-In . SVG Version: 2.1.1 Build 123)  -->
  <defs>
    <style>
      .st0 {
        fill: #191616;
      }
    </style>
  </defs>
  <path class="st0" d="M1375.43,171.99c-.2-.02-.39-.03-.59-.05l.54.19.05-.14Z"/>
  <g>
    <path class="st0" d="M171.95,1112.59l-29.05-102.38h20.84l16.41,61.55c.44,1.69.87,3.73,1.31,6.11.44,2.38.93,4.77,1.48,7.15.55,2.38.98,4.47,1.31,6.26h.82c.22-.79.52-2.11.9-3.95.38-1.84.85-4.05,1.39-6.63.55-2.58,1.15-5.56,1.81-8.94l16.25-61.55h20.35l-29.05,102.38h-24.78Z"/>
    <path class="st0" d="M434.34,1112.59v-102.38h69.09v15.5h-49.23v26.97h43.16v15.5h-43.16v28.91h49.89v15.5h-69.74Z"/>
    <path class="st0" d="M716.6,1112.59v-102.38h42.83c8.21,0,14.71,1.32,19.53,3.95,4.81,2.63,8.29,6.21,10.42,10.73,2.13,4.52,3.2,9.71,3.2,15.57,0,6.66-1.23,12.5-3.69,17.51-2.46,5.02-6.21,8.77-11.24,11.25l19.2,43.37h-21l-16.57-38.45h-22.81v38.45h-19.86ZM736.45,1058.8h20.51c5.47,0,9.44-1.51,11.9-4.54,2.46-3.03,3.69-7.28,3.69-12.74,0-3.58-.55-6.53-1.64-8.87-1.09-2.33-2.79-4.07-5.09-5.22-2.3-1.14-5.47-1.71-9.52-1.71h-19.86v33.08Z"/>
    <path class="st0" d="M1006.07,1112.59v-102.38h19.86v86.73h41.52v15.65h-61.37Z"/>
    <path class="st0" d="M1267.32,1112.59l31.84-102.38h25.44l32,102.38h-21l-6.89-23.1h-34.46l-6.73,23.1h-20.18ZM1298.17,1074.29h26.58l-8.53-30.85c-.22-.79-.52-1.81-.9-3.05-.38-1.24-.77-2.61-1.15-4.1-.38-1.49-.77-3-1.15-4.54-.38-1.54-.74-2.96-1.07-4.25h-.98c-.33,1.59-.77,3.4-1.31,5.44-.55,2.04-1.07,4.02-1.56,5.96s-.9,3.45-1.23,4.54l-8.7,30.85Z"/>
    <path class="st0" d="M1601.76,1114.38c-14.22,0-24.89-4.3-32-12.89-7.11-8.59-10.67-21.93-10.67-40.01,0-12.12,1.69-22.08,5.09-29.88,3.39-7.8,8.48-13.61,15.26-17.44,6.78-3.82,15.1-5.74,24.94-5.74,6.12,0,11.68.8,16.66,2.38,4.98,1.59,9.27,3.93,12.88,7,3.61,3.08,6.34,6.98,8.21,11.7,1.86,4.72,2.79,10.21,2.79,16.47h-19.53c0-3.48-.47-6.58-1.39-9.31-.93-2.73-2.27-5.07-4.02-7-1.75-1.94-3.97-3.38-6.65-4.32-2.68-.94-5.77-1.42-9.27-1.42-4.16,0-7.79.65-10.91,1.94-3.12,1.29-5.69,3.3-7.71,6.04-2.03,2.73-3.53,6.18-4.51,10.36-.98,4.17-1.48,9.09-1.48,14.75v9.09c0,7.65.85,13.91,2.54,18.78,1.7,4.87,4.32,8.45,7.88,10.73,3.55,2.29,8.01,3.43,13.37,3.43s9.52-.94,12.8-2.83c3.28-1.89,5.74-4.64,7.38-8.27,1.64-3.63,2.46-8.02,2.46-13.19v-2.09h-24.94v-14.46h43.82v54.39h-11.98l-1.64-10.58c-2.08,2.58-4.54,4.82-7.38,6.71-2.85,1.89-6.07,3.3-9.68,4.25-3.61.94-7.71,1.42-12.31,1.42Z"/>
  </g>
  <g>
    <path class="st0" d="M1635.97,838.27c-.24-2.96-.22-8.96-.9-12.02,1.01-7.22,1.4-14.04,1.49-20.69h.01s18.96-464.42,18.96-464.42c.85-10.42,1.21-20.87,1.28-31.35l3.01-73.81c1.08-4.69.9-9.7.6-14.81-.23-8.27,0,0-.2-21.97-1.19-8.93-2.12-13.29-2.54-17.98-1.51-17.01-5.7-33.7-12.95-49.17-1.05-2.24-2.09-4.57-3.13-7.02-2.98-7.02-9.04-12.45-16.51-14-7.44-1.54-14.92.81-20.04,9.51-.52,27.64,17.17,56.7,13.97,85.11l-4.38,104.6c-13.01-3.52-36.57-12.15-65.32-20.36-23.99-6.85-44.2-16.21-58.18-20.35-28.05-8.31-42.08-12.46-59.74-19.67-7.07-2.89-29.15-12.13-56.52-28.23-40.76-23.97-41.52-32.7-67.83-42.26-25.08-9.11-48.1-18.8-52.87-8.67-.77,1.64-11.2,9.67-8.47,15.29,10.91,22.44,39.68,30.74,45.77,34.69,46.37,30.07,46.41,32.22,125.83,67.41,17.52,7.77,34.51,14.15,50.06,19.35,11.85,8.03,52.85,15.69,69.8,18.6,4.77.9,7.42,1.28,7.43,1.23,51.26,7.94,44.06,13.03,67.51,14.84-5.25,88-7.54,482.06-14.48,481.59-4.91,1.52-48.07-.76-52.32-1.87-4.49-.86-25.28-2.07-30.31-1.26-1.63.1-32.66,1.28-35.23,1.45-13.78,3.33-11.24,1.47-10.08,14.55.53,6.67-.46,10.35.64,14.29-4.39,6.1,72.41,6.81,60.77,6.7,44.91.82,33.48-1.72,72.06,7.58,10.36-.45,13.91-.79,14.51-1,10.04-.56,17.65-3.46,17.57-4.88.06-.25.14-.63.24-1.17,2.51-6.67.8-9.74.28-13.66,0-3.13.08-2.51.21-6.19Z"/>
    <path class="st0" d="M340.78,119.04c-25.58-4.65-109.83.83-135.31-1.66-1.24-.12-2.59-.24-3.83-.28-20.54-.55-46.97-5.46-47.89,9.81l-.22.97c-1.26,5.48.75,11.04.18,16.64-1.25,12.43-2.8,27.67-2.72,40.19.43,24.77-3.74,38.32-2.2,56.89.94,11.36,1.9,21.79,1.03,27.64-.49,3.26.63,7.07.27,10.42-.31,2.94-.53,5.89-.71,8.84-.09,1.49-.24,2.93-.45,4.31.12.02.22.04.33.06,2.27,91.65,13.32,183.84.81,275.33-8.83,56.73-2.32,113.23-3.63,170.02.29,12.67.81,88.66,3.1,109.22.17,1.51.51,12.23,1.99,11.98,9.56-1.64,35.08,2.25,42.87-.73,5.16-56.53-.73-122.72-3.85-171.28,4.27-48.13,3.16-98.56,2.75-148.13-1.37-33.6,8.61-69.21,5.37-102.68-2.41-22.41-3.02-46.42-6.21-67.38-.63-6.65.57-17.49-.07-25.35,1.19-4.96.84-7.21.77-6.84-.34-2.19-.59-4.35-.63-6.56-4.52-12.83-.28-43.8-.95-54.78.14-.9,1.61-3.96,2.39-4.15,22.06.16,53.42-2.73,75.74-4.31,4.66-1.24,48.6,3.44,48.97-2.09.12-1.8.49-10.53.37-12.33-.1-1.52-.02-13.97-.34-17.11l.11-1.08c.09-.06-.54-2.18-1.52-2.24-8.46-.51-52.23-.87-61.48-.92-20.9.79-40.43,1.52-60.99,2.73-3.61-2.97-2.6-16.39-1.6-30.29.4-21.59.92-32.17,1.96-48.65,20.71,1.17,39.37.4,60.58-1.03,6.72-.45,10.04-1.31,19.7-1.9l1.21.06c.29-.1,56.82-1.57,57.12-1.58,9.83-.38,6.17-13.29,6.17-24.32,0-2.87,2.32-7.17.8-7.45Z"/>
    <path class="st0" d="M1155.56,120.38c-3.42-2.78-7.37-.07-14.42-1.46-33.94-6.7-97.45.5-111.83.38-8.77.47-5.13-.38-16.64-1.03-10.4-.19-16.17-2.11-22.67,2.33-17.99,10.21-6.03,75.06-11.5,98.71-.06.28-.1.56-.1.84l-.42,35.96h0c-.15,20.11-6.97,53.52-5.29,63.99.05.3.07.6.05.9-7.03,126.88-8.74,253.19.32,379.8,2.2,20.53,7.51,67.55,10.67,90.78,1.39,11.45.35,3.27,2.98,23.18.01.09.03.19.05.28,3.7,18.24,5.44,31.47,17.44,38.37.19.11.39.21.59.29,27.44,11.14,54.69,4.9,80.39-3.49.33-.11.6-.39.95-.46,17.86-3.58,36.68-5.33,56-12.81,2.67-1.04.39-12.26.33-16.06-.01-.8-.46-5.19-.9-5.86-1.51-2.28-.24-5.81-3.66-9.87-1.9-2.26-8.1-1.14-11.04-.89-7.91.67-15.52,1.45-21.52,1.64-.24.07-.41.13-.55.17.09-.04.08-.05-.27.03,0,0-1.56.36-2.7.47-1.99.19-4.74.42-6.82.69-3.12.41-5.83.83-8.17,1.28-1.66.34-.55.15-2.52.53-2.77.64-4.85,1.34-6.3,2.13q-2.49,1.36-18.85,3.12h0c-14.04,2.26-18.27,2.25-23.37,1.31-1.25-.23-2.34-1.02-2.93-2.15-6.03-11.4-1.45-23.94-2.33-36.83-.04-.55-.83-12.98-.95-13.51-3.81-17.29-3.57-18.26-5.33-33.31-.02-.13-.04-.26-.06-.39-15.2-71.01-7.07-146.92-7.35-220.59,0,0,0,0,0,0l1.85-220.13c.83-1.09,1.69-2.23,2.6-3.49l7.48-.88c14.12-.82,40.23-2.22,67.12-1.74.16,0,.33.05.48.04,8.52-.43,5.61.22,28.47-.79,9.51,1.11,7.22-7.75,7.25-11.11.02-3.36-.04-.36-.04-.55-.17-7.69,3.02-18.22,1.7-22.02-.68-1.95-2.74-2.44-4.97-2.31-20.65,1.18-70.38,5.32-87.05,4.19-.73-.05-8.3-.11-9.04-.11-3.16-.02-9.09,0-13.66.03l.82-97.33c10.02,1.1,13.55,1.17,14.35,1.08,3.98.24,2.72.15,7.52-.15.11,0,.22-.02.33-.03,36.89-5.58,77.75-5.07,114.7-3.18,2.08.11,3.94-1.35,4.26-3.41.6-3.84-3.05-7.09-2.89-10.16.23-4.33.79-13.68-2.56-16.4Z"/>
    <path class="st0" d="M861.74,160.32c-.05-.05-.11-.09-.18-.12-103.97-58.47-234.98-39.11-350.14-35.34-.11,0-.22.03-.32.07-28.64,11.76-103.47-22.33-88.54,31.74.02.07.03.15.03.22,1.21,31.85-1.71,64.75,2.74,96.59.02.11,0,.22-.02.32-.17,1.1.66,5.26.76,5.92.15,1.01.05.2.34,1.17,3.78,12.52,1.58,18.54,1.64,32.49,0,.09,0,.19.03.28.13.45.52,1.06.57,1.77.21,1.74.17,1.21.69,5.78,0,.02,0,.05,0,.08,8.01,168.24-26.29,337.47-8.29,504.49.82,12.82.89,24.94.9,37.09,0,.15-.02.39-.05.53-.2,1.17.79,4.91.97,8.98.11,2.61-1.08,6.3.03,6.42,8.33.87,22.3.83,32.3.73.18,0,.31-.06.49-.06,3.85-.04,7.11-.03,9.13-.03h3.26c2.21.12,5.4.57,5.7-1.5.65-4.57,1.7-13.54,1.55-23.27,0-.04,0-.09-.01-.13-19.75-129.97-3.07-262.76-4.16-394.14.39-87.44,16.44,49.89,26.97,69.26.03.06.05.11.07.17,29.49,100.63,66.28,205.87,95.63,307.53.79,2.73,1.75,5.4,3.01,7.93,5.18,10.38,6.9,29.13,12.94,31.06,1.25.4,2.76.13,6.76-.56,17.29-3.01,14.6-2.42,17.8-3.54.17-.06.45-.46.48-.64,1.62-10.93-2.91-35.4-4.13-40.12-.04-.15.02-.32-.03-.47l-39.77-135.27h0s-31.61-107.53-31.61-107.53c-.01-.04-.03-.08-.04-.12-.22-.51-.45-1.01-.67-1.52l-5.76-19.46c.11-.21.14-.46.07-.7l-.91-3.1c-.07.05-.14.1-.22.15-.01-.01-.02-.02-.03-.03l-1.26-4.27c.13-.22.15-.49.08-.74l-1.21-4.12c-.08-.26-.25-.46-.48-.58l-1.17-3.94.08-.35c.04-.17.03-.34-.01-.5l-1.68-4.59-17.26-58.27c-.06-.3-.08-.56-.17-.86l-18.17-63.05v-.02c-6.56-15.74-14.88-46.69-15.9-78.83h0c-.06-1.9-.09-3.68-.08-5.35,0-.22-.08-.42-.21-.59-.84-1.16-.62-2.59.2-3.93.09-.14.14-.3.15-.47.52-9.31,2.49-14.4,6.24-17.99h0c7.7-7.35,21.27-6.88,35.57-3.23.09.02.19.03.29.03,15.68-.93,31.36-1.16,47.41-.42,41.83.57,290.9-9.35,289.86-51.04,0-.17.03-.34.11-.49,4.36-7.66,25.65-20.15,22.67-30.63-6.12-21.93-18.57-34.56-35.08-48.92ZM787.19,163.57c-3.16,3.27-6.53-2.85-15.3,2.69-.62-6.79,11.1-3.05,15.3-2.69ZM711.57,153.67c.93,1.99-4.99,3.55-1.34,4.49,5.57,1.44,1.92-5.77,9.93-4.54,9.88,2.03,22.1,4.67,31.72,4.29,55.98,11.56-121.11-7.12-127.33-7,11.28-6.91,62.7,2.01,87.01,2.76ZM794.75,238.16c-83.1,15.58-169.4,16.22-253.73,18.11-20.23-5.19-67.43,17.48-73.48-12.08,6.38-22.75-21.86-84.12,10.45-81.56,63.35-1.64,128.13.8,191.06,9.68,43.76,3.6,288.39,14.6,125.7,65.86Z"/>
  </g>
</svg>