<?xml version="1.0" encoding="UTF-8"?>
<svg id="Layer_1" data-name="Layer 1" xmlns="http://www.w3.org/2000/svg" viewBox="0 0 1800 1200">
  <defs>
    <style>
      .cls-1 {
        fill: #303033;
      }

      .cls-2 {
        isolation: isolate;
      }
    </style>
  </defs>
  <g>
    <path class="cls-1" d="M1439.06,352.97c-.16-5.82,0,0-.14-15.46-.83-6.29-1.49-9.35-1.79-12.65-1.07-11.97-4.01-23.72-9.11-34.6-.74-1.57-1.47-3.22-2.21-4.94-2.1-4.94-6.36-8.76-11.62-9.85-5.24-1.09-10.5.57-14.1,6.69-.37,19.45,12.08,39.9,9.83,59.9l-3.08,73.61c-9.15-2.47-25.73-8.55-45.97-14.33-16.88-4.82-31.1-11.4-40.94-14.32-19.74-5.85-29.61-8.77-42.04-13.84-4.98-2.03-20.51-8.54-39.78-19.87-28.69-16.87-29.22-23.02-47.74-29.74-17.65-6.41-33.85-13.23-37.21-6.1-.54,1.15-7.88,6.81-5.96,10.76,7.68,15.79,27.92,21.63,32.21,24.41,32.63,21.16,32.66,22.67,88.56,47.44,12.33,5.46,24.28,9.96,35.22,13.61,8.37,5.67,37.46,11.1,49.29,13.12,3.22.6,5.01.86,5.07.84,36.08,5.58,31,9.17,47.52,10.44-3.69,61.94-5.31,339.25-10.19,338.92-3.45,1.07-33.83-.54-36.82-1.32-3.16-.61-17.79-1.46-21.33-.89-1.15.07-22.98.9-24.8,1.02-9.7,2.34-7.91,1.03-7.09,10.24.37,4.7-.32,7.29.45,10.06-3.09,4.29,50.96,4.79,42.77,4.71,31.61.58,23.56-1.21,50.71,5.34,7.31-.32,9.8-.56,10.21-.71,6.48-.36,11.53-2.1,12.27-3.16.02,0,.04-.06.08-.17,0-.02.02-.04.02-.06.05-.17.1-.44.18-.85,1.77-4.69.56-6.85.2-9.61,0-2.2.06-1.77.14-4.35-.04-.45-.06-.99-.09-1.59-.2-4.6-.15-9.22.19-13.81,1.09-14.76-.89-27.64-.57-43.28-2.39-18.49,2.93-36.91.61-56.99-4.56-23.65-4.09-46.91-1.41-70.48,6.01-44.56,8.96-89.17,10.29-134.17,7.58-29.83,5.54-60.24,4.99-90.65.09-.15.21-.28.34-.4.14-3.21.63-6.48,1.59-9.76.23-.8.48-1.55.74-2.26.88-3.43.75-7.12.53-10.88ZM1406.29,805.53h0s0,0,.01,0c0,0,0,0-.01,0Z"/>
    <path class="cls-1" d="M1094.38,279.54c-2.36-1.91-5.18-.05-10.15-1.03-23.89-4.71-68.58.35-78.7.27-6.17.33-3.61-.27-11.71-.73-7.32-.14-11.38-1.49-15.95,1.64-12.66,7.19-4.24,52.82-8.09,69.47-.05.2-.07.39-.07.59l-.3,25.31c-.11,14.15-4.9,37.67-3.72,45.03.03.21.05.42.04.64-4.95,89.29-6.15,178.18.22,267.29,1.55,14.45,5.29,47.54,7.51,63.89.98,8.06.25,2.3,2.1,16.31,0,.06.02.13.03.19,2.61,12.84,3.83,22.15,12.27,27,.13.08.28.14.42.2,19.31,7.84,38.49,3.45,56.58-2.46.24-.08.42-.27.67-.32,12.57-2.52,25.82-3.75,39.41-9.01,1.88-.73.28-8.63.23-11.3,0-.56-3.02-2.94-3.33-3.41-1.06-1.6.23-3.22-2.17-6.08-1.34-1.59-3.4-2.39-5.47-2.22-5.56.47-10.92,1.02-15.14,1.15-.16.05-.28.09-.38.12.05-.02.04-.03-.19.02,0,0-1.1.25-1.9.33-1.4.13-3.34.3-4.8.49-2.2.29-4.11.58-5.75.9-1.17.24-.39.11-1.77.37-1.95.45-3.42.94-4.44,1.5-1.17.64-5.59,1.37-13.26,2.19-9.88,1.59-12.86,1.58-16.45.92-.88-.16-1.64-.72-2.06-1.51-4.25-8.02-2.54-16.82-1.64-25.92.04-.39,0-.77-.12-1.14-3.2-10.17-3.06-21.22-4.3-31.81-.01-.09-.03-.18-.05-.28-11.86-55.4-3.54-115.03-5.47-172.05-.05-1.37.87-2.6,2.21-2.91,10.67-2.52,20.68-.89,39.6-.55.11,0,.23.01.34.03,5.58.77,3.95.16,20.04-.56,7.28.28,5.45-5.48,5.1-7.82-.02-.13-.03-.25-.03-.39-.12-5.41,2.13-12.82,1.2-15.5-.48-1.37-1.93-1.72-3.5-1.63-14.51.83-49.41,3.73-61.2,2.95.13-3.43,1.11-7.6-.2-12.57-.06-.24-.1-.49-.1-.74.1-33.54,1.42-67.71-2.68-100.97,0-.07-.02-.15-.02-.22-.38-8.63.31-16.01-.39-14.33l2.02-78.64c7.09.78,9.57.83,10.11.76,2.79.17,1.91.11,5.28-.11.08,0,.16-.01.23-.02,25.96-3.92,54.72-3.57,80.72-2.24,1.46.07,2.77-.95,3-2.4.42-2.7-2.15-4.99-2.03-7.15.16-3.05.56-9.63-1.8-11.54Z"/>
    <path class="cls-1" d="M875.94,307.7s-.08-.06-.12-.09c-73.17-41.15-165.36-27.53-246.41-24.87-.08,0-.15.02-.22.05-20.15,8.28-72.81-15.71-62.31,22.34.01.05.02.1.02.16.85,22.41-1.2,45.57,1.93,67.98.01.08,0,.15-.01.23-.12.77.46,3.7.53,4.17.11.71.03.14.24.83,2.66,8.81,1.11,13.05,1.15,22.87,0,.07,0,.13.02.2.09.32.37.75.4,1.24.15,1.23.12.85.49,4.07v.05c5.63,118.4-18.5,237.49-5.84,355.03.57,9.02.63,17.55.63,26.1,0,.1-.02.27-.03.37-.14.82.56,3.46.68,6.32.08,1.84-.76,4.43.02,4.51,5.86.61,15.69.58,22.73.51.13,0,.22-.04.35-.04,2.71-.03,5-.02,6.42-.02l2.29.04c1.55.08,3.8.4,4.01-1.05.45-3.22,1.19-9.53,1.09-16.38v-.09c-13.9-91.47-2.16-184.92-2.92-277.37.27-61.54,11.57,35.11,18.98,48.74.02.04.04.08.05.12,20.76,70.82,46.65,144.88,67.3,216.42.55,1.92,1.23,3.8,2.12,5.58,3.64,7.31,4.85,20.5,9.1,21.86.88.28,1.94.09,4.76-.4,12.17-2.12,10.27-1.7,12.53-2.49.12-.04.32-.32.34-.45,1.14-7.69-2.05-24.91-2.91-28.24-.03-.11.01-.22-.02-.33l-50.23-170.87s-.02-.06-.03-.09c-.01-.02-.02-.05-.03-.07l-4.31-14.67c-.21.12-.39.26-.55.41.06-.06.11-.13.18-.18.22-.17.32-.47.24-.74l-.64-2.18s-.1.07-.16.1c-1.41-1.24-1.41-2.21-.91-3.02.1-.16.11-.35.06-.53l-.85-2.9c-.09-.31-.38-.51-.7-.49.16-.03.32-.06.5-.09l-.88-3-.03.11c.02-.11.01-.21-.01-.31l-6.03-16.52c-.08-.26-.24-.6-.36-1.09-.08-.35-.2-.37-.37-.59.43.05.72,2.99,1.24,3.07l-7.57-29.28c-.08.07-.15.14-.22.21,0,0,0,0,0-.01-.05-.23-.06-.42-.12-.64l-12.79-44.37c-4.61-11.09-10.47-32.87-11.18-55.49-.04-1.34-.06-2.59-.06-3.77,0-.07-.02-.14-.04-.2,0,0,0,0,0,.01,0-1.1.04-2.13.09-3.1-.04.07-.08.13-.12.2.02-.03.03-.06.05-.09.06-.1.1-.21.11-.33.36-6.56,1.75-10.14,4.39-12.66,5.42-5.18,14.97-4.84,25.03-2.27.07.02.14.02.2.02,11.03-.65,22.07-.82,33.36-.3,29.44.4,204.72-6.58,203.99-35.92,0-.12.02-.24.08-.35,3.07-5.39,18.05-14.18,15.96-21.55-4.31-15.43-13.07-24.32-24.69-34.43ZM658,580.56c-.05.06-.08.13-.13.19.04-.06.08-.13.13-.19ZM657.73,581.03c-.02.05-.04.11-.06.17,0-.03,0-.05.01-.08.01-.03.03-.06.05-.09ZM647.59,547.98c-1.52-3.31-2.47-5.35-3.12-7.32.94,1.96,3.85,3.9,3.12,7.32ZM823.46,310.04c-2.22,2.3-4.59-2.01-10.76,1.89-.44-4.77,7.81-2.15,10.76-1.89ZM770.24,303.07c.66,1.4-3.51,2.5-.94,3.16,3.92,1.02,1.35-4.06,6.99-3.19,6.95,1.43,15.55,3.28,22.33,3.02,39.39,8.13-85.23-5.01-89.61-4.93,7.94-4.86,44.12,1.42,61.23,1.94ZM828.79,362.53h-.01c-58.48,10.96-119.22,11.41-178.56,12.74-14.24-3.65-47.46,12.3-51.71-8.5,4.49-16.01-15.39-59.2,7.36-57.4,44.58-1.15,90.17.56,134.46,6.81,30.8,2.53,202.95,10.28,88.46,46.35Z"/>
    <path class="cls-1" d="M498.31,278.7c-18-3.27-77.3.58-95.22-1.17-.87-.09-1.82-.17-2.7-.19-14.46-.39-33.06-3.84-33.7,6.9l-.16.68c-.89,3.86.53,7.77.13,11.71-.88,8.75-1.97,19.47-1.91,28.28.3,17.43-2.63,26.96-1.55,40.04.66,8,1.34,15.33.72,19.45-.34,2.29.44,4.97.19,7.33-.22,2.07-.37,4.14-.5,6.22-.06,1.05-.17,2.06-.32,3.04.08.01.15.03.24.04,1.6,64.5,9.37,129.38.57,193.76-6.22,39.92-1.63,79.68-2.56,119.65.2,8.91.57,62.4,2.18,76.87.12,1.06.36,8.61,1.4,8.43,6.73-1.15,24.68,1.58,30.17-.52,3.63-39.78-.51-86.36-2.71-120.54,3.01-33.87,2.23-69.36,1.93-104.25-.96-23.64,6.06-48.71,3.78-72.26-1.69-15.77-2.13-32.67-4.37-47.42-.44-4.68.4-12.31-.05-17.84.84-3.49.59-5.07.54-4.81-.24-1.54-.41-3.06-.44-4.61-3.18-9.03-.2-30.82-.67-38.55.1-.63,1.14-2.79,1.68-2.92,15.53.11,37.6-1.92,53.3-3.03,3.28-.87,34.2,2.42,34.46-1.47.08-1.27.35-7.41.26-8.67-.07-1.07-.01-9.83-.24-12.04l.09-.76c.06-.04-.38-1.53-1.07-1.58-5.95-.36-36.76-.61-43.27-.64-14.71.56-28.45,1.07-42.92,1.92-2.54-2.09-1.83-11.54-1.12-21.32.28-15.19.64-22.64,1.38-34.24,14.58.83,27.71.28,42.63-.73,4.73-.32,7.06-.92,13.86-1.34l.85.04c.2-.07,39.99-1.11,40.2-1.11,6.92-.27,4.34-9.35,4.35-17.11,0-2.02,1.63-5.05.57-5.24Z"/>
  </g>
  <g class="cls-2">
    <g class="cls-2">
      <path class="cls-1" d="M459.67,939.95l-16.28,52.54h-10.5l-16.53-52.54h9.69c9.36,32.56,11.64,40.78,12.21,45.81.65-5.03,2.85-13.25,12.21-45.81h9.2Z"/>
      <path class="cls-1" d="M625.97,947.28h-21v15.02h17.18v7.1h-17.18v15.76h21v7.33h-29.88v-52.54h29.88v7.33Z"/>
      <path class="cls-1" d="M788.93,992.49l-16.85-23.68c.49,4.88.57,11.25.57,23.68h-8.87v-52.54h17.1c11.32,0,17.99,5.92,17.99,15.39s-7.65,15.02-16.2,15.1c2.44,2.81,6.68,8.51,16.69,22.05h-10.42ZM780.06,947.28h-7.41v17.69h7.41c6.43,0,10.01-3.7,10.01-8.88s-3.58-8.81-10.01-8.81Z"/>
      <path class="cls-1" d="M936.99,992.49v-52.54h8.87v45.22h19.86v7.33h-28.74Z"/>
    </g>
    <g class="cls-2">
      <path class="cls-1" d="M1134.06,992.49l-3.66-12.88h-17.18l-3.66,12.88h-9.2l16.28-52.54h10.5l16.53,52.54h-9.61ZM1128.44,972.88c-5.21-18.21-6.43-23.39-6.76-27.23-.33,3.85-1.55,9.03-6.59,27.23h13.35Z"/>
    </g>
    <g class="cls-2">
      <path class="cls-1" d="M1291.52,963.71h27.35c0,19.02-9.44,29.53-23.12,29.53s-23.28-10.88-23.28-27.01,9.12-27.01,23.44-27.01c8.47,0,16.2,4,19.62,11.77l-7,4.07c-2.28-5.18-6.76-8.36-12.37-8.36-8.95,0-14.82,7.47-14.82,19.61s5.62,19.46,14.41,19.46c7.41,0,12.78-5.55,13.92-14.95h-18.15v-7.1Z"/>
    </g>
  </g>
</svg>